PathFileType	4	(X/Y/Z)	F:\MotionCapture\20160217\3\Generated_files\EMG_Fprce_test06-Dynamic.trc
DataRate	CameraRate	NumFrames	NumMarkers	Units	OrigDataRate	OrigDataStartFrame	OrigNumFrames
120.00	120.00	       7	39	mm	120.00	493	       657
Frame#	Time	Top.Head			Front.Head			Rear.Head			R.Shoulder			R.Offset			R.Elbow			R.Wrist			L.Shoulder			L.Elbow			L.Wrist			R.ASIS			L.ASIS			V.Sacral			R.Thigh			R.Knee			R.Shank			R.Ankle			R.Heel			R.Toe			L.Thigh			L.Knee			L.Shank			L.Ankle			L.Heel			L.Toe			R1			R2			R3			R4			R5			R6			R7			L1			L2			L3			L4			L5			L6			L7			V_Mid_ASIS			V_Pelvis_Origin			V_R.Hip_JC			V_L.Hip_JC			V_R.Knee_JC			V_L.Knee_JC			V_R.Ankle_JC			V_L.Ankle_JC			V_Mid_Hip			V_Mid_Shoulder			V_R.Hand			V_L.Hand			V_R.Toe_Offset_Static			V_L.Toe_Offset_Static			V_R.Toe_Offset			V_L.Toe_Offset			
		X1	Y1	Z1	X2	Y2	Z2	X3	Y3	Z3	X4	Y4	Z4	X5	Y5	Z5	X6	Y6	Z6	X7	Y7	Z7	X8	Y8	Z8	X9	Y9	Z9	X10	Y10	Z10	X11	Y11	Z11	X12	Y12	Z12	X13	Y13	Z13	X14	Y14	Z14	X15	Y15	Z15	X16	Y16	Z16	X17	Y17	Z17	X18	Y18	Z18	X19	Y19	Z19	X20	Y20	Z20	X21	Y21	Z21	X22	Y22	Z22	X23	Y23	Z23	X24	Y24	Z24	X25	Y25	Z25	X26	Y26	Z26	X27	Y27	Z27	X28	Y28	Z28	X29	Y29	Z29	X30	Y30	Z30	X31	Y31	Z31	X32	Y32	Z32	X33	Y33	Z33	X34	Y34	Z34	X35	Y35	Z35	X36	Y36	Z36	X37	Y37	Z37	X38	Y38	Z38	X39	Y39	Z39	

493	4.100	-2388.21265	209.60011	1697.84607	-2501.64307	206.62654	1617.43494	-2280.09961	198.73114	1627.07397	-2323.17505	390.54922	1384.84619	-2209.84277	106.27788	1252.88855	-2195.34692	461.57404	1083.76282	-2188.55640	474.80093	820.10016	-2376.88330	-11.27658	1403.60828	-2503.31787	-132.45552	1120.78186	-2744.62573	-91.36122	1036.33850	-2415.94141	313.29468	913.85107	-2404.44067	22.23552	913.84167	-2184.28833	177.48598	917.91547	-2567.00854	290.10837	597.51215	-2549.56567	330.78943	482.60385	-2633.37036	268.54419	264.47702	-2644.54468	341.06540	91.31407	-2593.51587	276.75494	37.21733	-2782.70313	324.08749	112.78357	-2379.52588	80.67155	583.13800	-2241.24585	39.66150	442.92935	-2210.71191	122.53661	309.34821	-2063.86841	70.63217	74.01926	-1996.36243	125.67666	69.83464	-2199.15161	79.57095	37.69451	-2819.28711	311.86002	137.29002	-2788.65063	289.56369	119.05470	-2700.76245	254.11427	98.05634	-2639.96777	249.53435	56.70787	-2621.63818	321.95132	50.09374	-2696.77661	354.73541	71.38588	-2754.72119	361.54880	91.93083	-2243.62207	103.98321	31.90484	-2210.33423	119.15320	40.86137	-2117.06274	160.07022	51.53070	-2035.05774	158.02419	63.60286	-2023.93945	85.56371	61.69078	-2095.08887	59.64082	36.90410	-2158.02734	45.91633	35.52072	
494	4.108	-2401.71802	210.94214	1694.82031	-2515.05884	207.87802	1614.39197	-2293.45264	200.15694	1623.89331	-2336.01465	392.36667	1382.34241	-2222.43750	108.10873	1250.32312	-2204.92944	462.06256	1082.78503	-2194.09668	474.16873	819.11963	-2389.83105	-9.90813	1401.04797	-2520.31494	-130.59734	1120.47961	-2763.24780	-88.19807	1041.81299	-2430.12598	314.12677	911.22113	-2416.81396	22.84803	911.29694	-2198.66260	179.62291	915.45605	-2578.43115	288.74164	594.44617	-2563.17261	330.81717	480.89645	-2653.40454	269.50027	265.57275	-2670.35938	341.28497	92.38059	-2621.07788	278.18298	36.62759	-2807.99194	326.84540	119.02187	-2389.13379	79.53313	580.57349	-2248.68506	39.49951	442.06802	-2216.15063	122.36412	308.66397	-2064.53809	70.55653	75.72250	-1996.75415	126.01805	72.82813	-2199.16797	79.39946	37.62773	-2843.91333	312.38208	144.46368	-2814.13843	290.88272	125.40283	-2726.53467	255.57841	100.96570	-2667.02856	250.96893	57.86951	-2648.45264	323.04462	50.77078	-2723.79224	355.39651	73.46162	-2780.27295	362.57272	97.14758	-2243.87280	103.72282	31.80138	-2210.33032	118.95304	40.77694	-2116.88916	159.44348	52.15968	-2037.11047	160.77008	68.27042	-2024.52063	85.90501	63.47873	-2095.63965	59.14462	38.16673	-2158.12695	45.86906	35.45056																																																	-2109.35986	192.64645	31.36915	-2782.66089	329.64813	125.67489	
495	4.117	-2415.07129	212.38831	1692.40674	-2528.33716	209.48773	1611.62671	-2306.40479	202.92177	1621.44214	-2348.81128	393.49554	1380.19348	-2235.20801	109.46999	1247.54810	-2214.64478	462.51099	1081.27441	-2200.72485	473.52411	817.77618	-2402.22729	-7.96304	1398.15405	-2537.46997	-128.98244	1119.69836	-2781.47021	-85.72214	1047.01392	-2444.32202	314.87946	908.79401	-2429.37402	23.67663	909.03796	-2212.30005	181.56879	912.46423	-2589.51855	287.13239	592.11127	-2576.33618	331.06049	479.30383	-2672.45630	270.48477	266.44986	-2694.24341	343.17258	93.50164	-2647.61938	278.88742	37.24118	-2830.65674	327.51093	123.50680	-2399.36304	78.32495	578.30316	-2256.27002	39.35625	441.31067	-2221.67993	122.29086	307.97736	-2064.45215	69.60596	78.16913	-1998.23279	125.67479	76.56631	-2199.25464	79.16848	37.69086	-2866.80444	314.09631	150.13185	-2838.64893	291.63013	130.00288	-2750.25391	256.96222	103.69724	-2692.13550	251.62021	58.70705	-2673.02930	324.97635	50.96203	-2747.90698	355.02478	75.68371	-2804.54907	364.79623	101.77896	-2244.45801	104.08991	32.08928	-2210.36133	118.77827	40.81585	-2118.33838	159.97554	54.22527	-2037.94128	160.04478	70.09724	-2025.62659	85.95552	66.88416	-2095.95117	59.28508	39.02584	-2158.22217	45.83033	35.43195																																																	-2806.43994	329.73492	130.35457	-2141.09082	212.69501	27.70723	-655.67804	-408.04633	821.93445	
496	4.125	-2428.63818	213.76129	1689.79553	-2541.55103	211.10191	1608.83447	-2320.11377	202.82845	1619.37292	-2361.68848	395.45450	1378.00183	-2247.69043	111.18095	1245.24536	-2225.13965	463.50034	1079.93774	-2209.09326	474.69559	816.67603	-2415.05493	-6.24259	1394.95520	-2553.02710	-126.99474	1119.20691	-2799.20020	-83.04642	1051.65613	-2458.74268	315.54813	906.46954	-2442.15161	24.01658	906.54132	-2223.77100	184.24142	910.18378	-2601.38403	286.13089	590.54565	-2590.46973	331.85840	478.12601	-2690.47949	271.22260	266.73041	-2716.03931	343.94046	94.25962	-2672.67896	277.93314	37.13493	-2851.89209	328.47989	127.60262	-2409.91260	77.08192	576.12579	-2264.19849	38.96043	440.85681	-2227.56055	121.91292	307.42383	-2066.94092	70.19372	80.57445	-1998.95081	126.68280	81.05132	-2199.35425	78.93256	37.73493	-2887.25513	315.00513	154.39989	-2859.21289	292.88495	133.93581	-2772.05688	257.82050	105.74658	-2714.82129	252.16751	59.58137	-2695.82813	324.64279	50.91374	-2769.96460	355.59357	76.68089	-2825.86499	365.29294	104.38865	-2244.63013	103.89513	31.98304	-2210.43774	118.61293	40.77685	-2119.73438	159.74002	56.14149	-2039.06604	159.90926	73.67196	-2026.86096	85.88464	70.31491	-2096.08130	59.10126	40.20965	-2158.34961	45.81112	35.49234	
497	4.133	-2441.78149	215.46896	1687.44873	-2555.01953	212.60439	1606.25110	-2333.45557	205.05664	1616.74280	-2374.88477	396.73590	1375.90308	-2261.39429	112.82417	1242.74023	-2235.71167	464.30707	1079.01257	-2217.36792	474.40430	816.12854	-2428.05322	-4.91904	1392.55884	-2568.80249	-124.92456	1118.33667	-2816.22900	-80.32217	1055.89685	-2473.14893	316.16028	904.32568	-2454.69019	25.29604	904.31396	-2238.02734	186.96986	908.20093	-2615.07837	285.72607	589.75073	-2604.54688	332.50446	476.54843	-2707.10547	272.06873	266.28168	-2734.83130	343.58478	94.15276	-2692.16284	278.31726	36.51902	-2870.72852	328.63873	129.48512	-2419.79102	77.43608	573.18713	-2272.79761	38.61977	440.40350	-2234.10107	121.51740	307.17654	-2068.65186	69.76866	84.02850	-2000.49500	126.64388	85.28667	-2199.47046	78.72997	37.63939	-2905.59326	316.31781	156.77910	-2877.87280	294.08310	136.24425	-2791.04614	258.07578	106.52795	-2734.59302	252.93811	58.72579	-2715.62427	325.15149	50.73159	-2789.31860	356.27463	77.46666	-2844.72437	365.64450	106.02348	-2244.75928	103.79826	31.85278	-2210.56445	118.48743	40.70289	-2119.95435	158.61299	57.59232	-2041.01770	160.19585	77.12184	-2027.87268	86.67869	74.80315	-2096.93872	58.82481	42.04025	-2158.57056	45.82866	35.50084																																																	-2415.41333	4.63047	-42.07084	-2110.27808	198.77003	26.28015	-2842.72925	421.40207	66.34409	
498	4.142	-2455.46924	217.29100	1685.08777	-2568.43530	214.28125	1603.86792	-2346.80762	206.98305	1614.78247	-2388.33008	398.99948	1373.74976	-2274.49976	114.67634	1240.13159	-2247.27319	466.06223	1077.91809	-2226.40210	474.29004	814.83203	-2441.18774	-3.04706	1389.86377	-2584.20190	-122.84599	1117.37842	-2832.67285	-77.88313	1059.73193	-2487.41821	316.92923	902.45734	-2467.89551	25.84711	902.41815	-2252.06372	189.93953	905.77625	-2630.16748	285.64966	589.89307	-2619.48755	333.77179	475.11859	-2722.99072	272.66202	265.25787	-2751.34058	343.81561	92.59186	-2709.32446	278.79675	34.63783	-2886.59229	329.87732	129.25531	-2431.27393	76.47292	570.91144	-2281.55249	38.73490	439.59686	-2240.76514	121.10183	306.47391	-2069.91528	70.20735	86.89182	-2002.85791	125.80595	90.03171	-2199.60425	78.52253	37.52630	-2921.85107	315.75275	157.52477	-2894.16211	293.98495	136.34926	-2807.43213	258.66974	106.12337	-2751.19922	253.80246	57.36273	-2732.79956	325.26306	49.77901	-2806.31860	356.95609	76.90119	-2860.81494	365.88516	105.45708	-2244.80444	103.73441	31.76447	-2210.10767	117.74538	40.00439	-2122.03931	158.88567	60.58312	-2041.50098	156.16269	79.34595	-2029.39319	86.66757	78.71762	-2097.69458	58.38979	43.87148	-2158.91650	45.75847	35.56743																																																	-2859.06958	422.30692	65.83264	
499	4.150	-2468.64746	218.99184	1682.88306	-2581.80957	215.86015	1601.77100	-2359.69214	208.74208	1612.54260	-2401.64453	400.93103	1371.61536	-2287.70166	116.53672	1237.70178	-2258.29395	466.86462	1076.74377	-2236.30249	474.97629	813.95386	-2454.30737	-1.17213	1388.09351	-2599.00977	-120.78809	1116.42224	-2848.50342	-75.67598	1063.12109	-2502.14331	317.90677	900.63092	-2481.33862	26.81470	900.45984	-2266.71582	192.98451	903.25385	-2646.31689	285.54013	590.38849	-2634.89673	334.62802	473.31613	-2737.82861	273.22647	263.45065	-2765.32495	343.72922	90.39924	-2722.35059	279.14948	32.67284	-2900.73804	329.22955	127.48781	-2442.65430	76.32561	568.65912	-2291.13452	38.85545	439.40860	-2248.29614	120.38609	306.22751	-2071.71533	68.62267	90.32275	-2005.51807	125.04954	95.67224	-2199.80371	78.30580	37.41198	-2936.00928	316.24533	155.19650	-2908.11743	294.13593	133.96239	-2821.25977	258.60980	103.93799	-2765.15649	253.84843	55.38155	-2746.76807	324.61075	46.76598	-2819.82910	357.03198	74.91979	-2874.15625	365.62100	102.96258	-2244.88110	103.70240	31.70683	-2210.54736	117.17586	39.61615	-2122.38501	159.06000	62.01542	-2043.42004	155.55183	83.71873	-2031.69421	85.85332	83.32143	-2098.99561	57.99316	46.08884	-2159.27661	45.60969	35.48775																																																	-2872.95361	422.64151	63.89379	
